<?xml version="1.0" encoding="UTF-8"?>
<svg id="Capa_1" data-name="Capa 1" xmlns="http://www.w3.org/2000/svg" xmlns:xlink="http://www.w3.org/1999/xlink" viewBox="0 0 300 150">
  <defs>
    <style>
      .cls-1 {
        fill: url(#Degradado_sin_nombre_2);
      }

      .cls-1, .cls-2 {
        fill-rule: evenodd;
      }

      .cls-3, .cls-2 {
        fill: #3c3c3b;
      }

      .cls-2 {
        stroke: #fff;
        stroke-miterlimit: 10;
        stroke-width: .88px;
      }
    </style>
    <linearGradient id="Degradado_sin_nombre_2" data-name="Degradado sin nombre 2" x1="9.42" y1="-222.66" x2="71.67" y2="-268.95" gradientTransform="translate(0 -171) scale(1 -1)" gradientUnits="userSpaceOnUse">
      <stop offset=".29" stop-color="#4294ff"/>
      <stop offset=".38" stop-color="#7c7bf7"/>
      <stop offset=".48" stop-color="#b463f0"/>
      <stop offset=".56" stop-color="#dd51eb"/>
      <stop offset=".63" stop-color="#f646e7"/>
      <stop offset=".67" stop-color="#ff42e6"/>
      <stop offset=".73" stop-color="#d343e3"/>
      <stop offset=".87" stop-color="#6645db"/>
      <stop offset="1" stop-color="#0047d3"/>
    </linearGradient>
  </defs>
  <g>
    <path class="cls-3" d="m72.96,59.67h-12.94v-6.9h34.68v6.91h-13.01v37.16h-8.72v-37.18Z"/>
    <path class="cls-3" d="m94.29,65.24h8.32v4.96c1.75-3.21,4.96-5.63,9.06-5.63,2.82,0,5.03.81,5.83,1.21v8.45c-1.88-1.08-5.16-2.08-8.18-2.08s-5.77,1.95-6.71,3.21v21.46h-8.32v-31.59Z"/>
    <path class="cls-3" d="m151.72,95.89c-1.41,1.01-3.9,1.61-5.83,1.61-3.75,0-5.63-2.62-6.1-3.83-2.69,2.42-6.84,3.83-10.74,3.83-7.04,0-11.95-3.56-11.95-10.2,0-7.11,5.9-10.27,16.91-10.27h4.84v-1.68c0-3.21-2.08-4.37-6.1-4.37-4.69,0-9.12.67-13.21,2.47v-6.91c2.89-.94,8.05-2.02,13.36-2.02,8.52,0,13.95,2.69,13.95,10.74v12.81c0,1.61.67,2.49,2.01,2.49,1.21,0,2.42-.47,2.89-.74v6.06h-.01Zm-17.51-14.15c-6.3,0-8.92,1.75-8.92,5.03,0,2.82,1.68,4.57,6.03,4.57,3.9,0,6.57-1.68,7.38-2.55v-7.04h-4.49Z"/>
    <path class="cls-3" d="m155.06,65.24h8.32v31.59h-8.32v-31.59Z"/>
    <path class="cls-3" d="m170.22,65.24h8.32v3.16c2.62-2.49,6.3-3.83,10.4-3.83,7.85,0,12.35,4.84,12.35,12.27v19.98h-8.32v-20.05c0-3.9-2.69-5.77-7.04-5.77-3.63,0-6.37,1.61-7.38,2.69v23.14h-8.32v-31.59h0Z"/>
    <path class="cls-3" d="m207.79,65.24h8.32v31.59h-8.32v-31.59Z"/>
    <path class="cls-3" d="m222.95,65.24h8.32v3.16c2.62-2.49,6.3-3.83,10.4-3.83,7.85,0,12.35,4.84,12.35,12.27v19.98h-8.32v-20.05c0-3.9-2.69-5.77-7.04-5.77-3.63,0-6.37,1.61-7.38,2.69v23.14h-8.32v-31.59h0Z"/>
    <path class="cls-3" d="m260.45,100.19c3.36,2.35,7.65,4.22,12.74,4.22,5.77,0,9.19-3.02,9.19-8.52v-2.82c-1.81,2.49-5.23,4.42-9.8,4.42-9.53,0-15.09-7.38-15.09-16.44s5.9-16.5,15.16-16.5c4.1,0,7.51,1.75,9.46,3.68v-3.02h8.25v30.05c0,10-6.3,15.7-16.84,15.7-6.17,0-10.52-1.81-13.09-3.63v-7.17h.01Zm21.59-26.23c-1.75-1.61-4.22-2.96-7.78-2.96-4.89,0-8.39,3.43-8.39,10.13,0,6.17,3.63,9.93,8.45,9.93,3.29,0,5.97-1.21,7.71-3.48v-13.61h.01Z"/>
    <path class="cls-1" d="m56.26,75.61v-24.79h-9.33v24.79c0,7.77-6.09,14.12-13.85,14.12h-.26c-7.77,0-13.85-6.36-13.85-14.12v-24.79h-9.33v24.79c0,12.9,10.28,23.44,23.18,23.44h.26c12.9,0,23.18-10.54,23.18-23.44"/>
    <polygon class="cls-2" points="37.61 60.15 37.61 50.82 32.95 50.82 28.28 50.82 28.28 60.15 28.28 94.78 37.61 94.78 37.61 60.15"/>
    <rect class="cls-3" x="28.28" y="39.02" width="9.33" height="8.48"/>
    <rect class="cls-3" x="154.57" y="54.75" width="9.33" height="8.48"/>
    <rect class="cls-3" x="207.29" y="54.75" width="9.33" height="8.48"/>
  </g>
  <g>
    <path class="cls-3" d="m76.04,103.09h-2.43v2.25h2.7v.68h-3.51v-6.24h3.37v.68h-2.56v1.98h2.43v.65h0Z"/>
    <path class="cls-3" d="m77.35,102.75c0-.47-.01-.84-.04-1.21h.73l.04.74h.01c.23-.43.74-.84,1.48-.84.63,0,1.58.37,1.58,1.91v2.67h-.81v-2.59c0-.73-.27-1.32-1.04-1.32-.54,0-.95.38-1.1.84-.04.1-.06.24-.06.38v2.7h-.81v-3.29h.01Z"/>
    <path class="cls-3" d="m83.44,100.25v1.29h1.17v.63h-1.17v2.42c0,.55.16.87.61.87.21,0,.37-.03.47-.06l.04.61c-.16.06-.41.11-.73.11-.38,0-.68-.11-.88-.34-.23-.24-.31-.64-.31-1.17v-2.45h-.7v-.63h.7v-1.08l.8-.21Z"/>
    <path class="cls-3" d="m85.53,102.93c0-.53-.01-.98-.04-1.39h.71l.03.88h.04c.2-.6.7-.98,1.24-.98.1,0,.16.01.23.03v.77c-.09-.01-.17-.03-.28-.03-.57,0-.98.44-1.1,1.05-.01.11-.04.24-.04.38v2.39h-.81v-3.1h.03Z"/>
    <path class="cls-3" d="m88.91,103.91c.01,1.11.73,1.55,1.54,1.55.58,0,.94-.1,1.24-.23l.14.58c-.28.13-.78.28-1.49.28-1.38,0-2.2-.91-2.2-2.26s.8-2.42,2.1-2.42c1.46,0,1.85,1.29,1.85,2.12,0,.17-.01.3-.03.38h-3.14Zm2.39-.58c.01-.53-.21-1.32-1.12-1.32-.82,0-1.18.75-1.25,1.32h2.38Z"/>
    <path class="cls-3" d="m93.11,102.75c0-.47-.01-.84-.04-1.21h.73l.04.74h.01c.23-.43.74-.84,1.48-.84.63,0,1.58.37,1.58,1.91v2.67h-.81v-2.59c0-.73-.27-1.32-1.04-1.32-.54,0-.95.38-1.1.84-.04.1-.06.24-.06.38v2.7h-.81v-3.29h.01Z"/>
    <path class="cls-3" d="m100.75,106.02l-.07-.57h-.03c-.26.36-.73.67-1.37.67-.91,0-1.37-.64-1.37-1.29,0-1.08.97-1.68,2.7-1.66v-.1c0-.37-.1-1.04-1.02-1.04-.41,0-.85.13-1.17.33l-.18-.54c.37-.24.91-.4,1.48-.4,1.37,0,1.71.94,1.71,1.83v1.68c0,.38.01.77.07,1.08h-.75Zm-.13-2.29c-.9-.01-1.89.14-1.89,1.01,0,.53.36.78.77.78.58,0,.95-.37,1.08-.75.03-.09.04-.17.04-.26v-.78h0Z"/>
    <path class="cls-3" d="m102.72,102.75c0-.47-.01-.84-.04-1.21h.71l.04.73h.03c.26-.43.67-.82,1.41-.82.61,0,1.08.37,1.27.9h.01c.14-.26.31-.44.5-.58.27-.2.57-.31,1-.31.6,0,1.48.38,1.48,1.95v2.65h-.8v-2.55c0-.87-.31-1.38-.97-1.38-.47,0-.82.34-.97.74-.04.11-.07.26-.07.41v2.77h-.8v-2.69c0-.71-.31-1.24-.94-1.24-.51,0-.88.41-1.01.81-.04.11-.07.26-.07.4v2.7h-.8v-3.27h.01Z"/>
    <path class="cls-3" d="m111.37,100.27c.01.28-.2.5-.53.5-.28,0-.48-.23-.48-.5,0-.28.21-.51.51-.51s.5.23.5.51Zm-.91,5.75v-4.48h.81v4.48h-.81Z"/>
    <path class="cls-3" d="m113.08,103.91c.01,1.11.73,1.55,1.54,1.55.58,0,.94-.1,1.24-.23l.14.58c-.28.13-.78.28-1.49.28-1.38,0-2.2-.91-2.2-2.26s.8-2.42,2.1-2.42c1.46,0,1.85,1.29,1.85,2.12,0,.17-.01.3-.03.38h-3.14Zm2.4-.58c.01-.53-.21-1.32-1.12-1.32-.82,0-1.18.75-1.25,1.32h2.38Z"/>
    <path class="cls-3" d="m117.27,102.75c0-.47-.01-.84-.04-1.21h.73l.04.74h.01c.23-.43.74-.84,1.48-.84.63,0,1.58.37,1.58,1.91v2.67h-.81v-2.59c0-.73-.27-1.32-1.04-1.32-.54,0-.95.38-1.1.84-.04.1-.06.24-.06.38v2.7h-.81v-3.29h.01Z"/>
    <path class="cls-3" d="m123.37,100.25v1.29h1.17v.63h-1.17v2.42c0,.55.16.87.61.87.21,0,.37-.03.47-.06l.04.61c-.16.06-.41.11-.73.11-.38,0-.68-.11-.88-.34-.23-.24-.31-.64-.31-1.17v-2.45h-.7v-.63h.7v-1.08l.8-.21Z"/>
    <path class="cls-3" d="m129.46,103.73c0,1.66-1.15,2.38-2.23,2.38-1.21,0-2.15-.9-2.15-2.3,0-1.51.98-2.38,2.22-2.38s2.16.94,2.16,2.3Zm-3.56.06c0,.98.57,1.72,1.37,1.72s1.37-.73,1.37-1.74c0-.75-.38-1.72-1.35-1.72-.97-.01-1.38.88-1.38,1.74Z"/>
    <path class="cls-3" d="m132.92,103.91c.01,1.11.73,1.55,1.54,1.55.58,0,.94-.1,1.24-.23l.14.58c-.28.13-.78.28-1.49.28-1.38,0-2.2-.91-2.2-2.26s.8-2.42,2.1-2.42c1.46,0,1.85,1.29,1.85,2.12,0,.17-.01.3-.03.38h-3.14Zm2.39-.58c.01-.53-.21-1.32-1.12-1.32-.82,0-1.18.75-1.25,1.32h2.38Z"/>
    <path class="cls-3" d="m137.1,102.75c0-.47-.01-.84-.04-1.21h.73l.04.74h.01c.23-.43.74-.84,1.48-.84.63,0,1.58.37,1.58,1.91v2.67h-.81v-2.59c0-.73-.27-1.32-1.04-1.32-.54,0-.95.38-1.1.84-.04.1-.06.24-.06.38v2.7h-.81v-3.29h.01Z"/>
    <path class="cls-3" d="m145.05,99.76v6.24h-.81v-6.24h.81Z"/>
    <path class="cls-3" d="m146.53,102.75c0-.47-.01-.84-.04-1.21h.73l.04.74h.01c.23-.43.74-.84,1.48-.84.63,0,1.58.37,1.58,1.91v2.67h-.81v-2.59c0-.73-.27-1.32-1.04-1.32-.54,0-.95.38-1.1.84-.04.1-.06.24-.06.38v2.7h-.81v-3.29h.01Z"/>
    <path class="cls-3" d="m151.68,102.75c0-.47-.01-.84-.04-1.21h.73l.04.74h.01c.23-.43.74-.84,1.48-.84.63,0,1.58.37,1.58,1.91v2.67h-.81v-2.59c0-.73-.27-1.32-1.04-1.32-.54,0-.95.38-1.1.84-.04.1-.06.24-.06.38v2.7h-.81v-3.29h.01Z"/>
    <path class="cls-3" d="m160.88,103.73c0,1.66-1.15,2.38-2.23,2.38-1.21,0-2.15-.9-2.15-2.3,0-1.51.98-2.38,2.22-2.38s2.16.94,2.16,2.3Zm-3.56.06c0,.98.57,1.72,1.37,1.72s1.37-.73,1.37-1.74c0-.75-.38-1.72-1.35-1.72-.97-.01-1.38.88-1.38,1.74Z"/>
    <path class="cls-3" d="m162.16,101.53l.88,2.52c.14.41.27.78.36,1.15h.03c.1-.37.23-.74.38-1.15l.87-2.52h.85l-1.76,4.48h-.78l-1.71-4.48h.88Z"/>
    <path class="cls-3" d="m168.76,106.02l-.07-.57h-.03c-.26.36-.73.67-1.37.67-.91,0-1.37-.64-1.37-1.29,0-1.08.97-1.68,2.7-1.66v-.1c0-.37-.1-1.04-1.02-1.04-.41,0-.85.13-1.17.33l-.18-.54c.37-.24.91-.4,1.48-.4,1.37,0,1.71.94,1.71,1.83v1.68c0,.38.01.77.07,1.08h-.75Zm-.13-2.29c-.9-.01-1.89.14-1.89,1.01,0,.53.36.78.77.78.58,0,.95-.37,1.08-.75.03-.09.04-.17.04-.26v-.78h0Z"/>
    <path class="cls-3" d="m173.94,105.85c-.21.11-.68.26-1.29.26-1.35,0-2.23-.92-2.23-2.29s.94-2.38,2.4-2.38c.48,0,.91.11,1.12.23l-.18.63c-.2-.11-.5-.21-.95-.21-1.02,0-1.58.75-1.58,1.69,0,1.04.67,1.68,1.55,1.68.47,0,.77-.11,1-.23l.17.63Z"/>
    <path class="cls-3" d="m175.8,100.27c.01.28-.2.5-.53.5-.28,0-.48-.23-.48-.5,0-.28.21-.51.51-.51s.5.23.5.51Zm-.91,5.75v-4.48h.81v4.48h-.81Z"/>
    <path class="cls-3" d="m181.12,103.73c0,1.66-1.15,2.38-2.23,2.38-1.21,0-2.15-.9-2.15-2.3,0-1.51.98-2.38,2.22-2.38s2.16.94,2.16,2.3Zm-3.56.06c0,.98.57,1.72,1.37,1.72s1.37-.73,1.37-1.74c0-.75-.38-1.72-1.35-1.72-.95-.01-1.38.88-1.38,1.74Zm2.59-4.2l-1.12,1.32h-.58l.81-1.32h.9Z"/>
    <path class="cls-3" d="m182.16,102.75c0-.47-.01-.84-.04-1.21h.73l.04.74h.01c.23-.43.74-.84,1.48-.84.63,0,1.58.37,1.58,1.91v2.67h-.81v-2.59c0-.73-.27-1.32-1.04-1.32-.54,0-.95.38-1.1.84-.04.1-.06.24-.06.38v2.7h-.81v-3.29h.01Z"/>
    <path class="cls-3" d="m189.57,101.53l.98,2.65c.1.3.21.65.28.91h.01c.09-.27.17-.61.28-.94l.9-2.63h.87l-1.22,3.2c-.58,1.54-.98,2.32-1.54,2.8-.4.36-.8.5-1,.53l-.2-.68c.2-.07.47-.2.71-.4.23-.17.5-.5.68-.91.04-.09.06-.14.06-.2s-.01-.11-.06-.21l-1.66-4.14h.9v.03Z"/>
    <path class="cls-3" d="m196.44,100.46h-1.91v-.68h4.62v.68h-1.91v5.56h-.81v-5.56Z"/>
    <path class="cls-3" d="m199.62,103.91c.01,1.11.73,1.55,1.54,1.55.58,0,.94-.1,1.24-.23l.14.58c-.28.13-.78.28-1.49.28-1.38,0-2.2-.91-2.2-2.26s.8-2.42,2.1-2.42c1.46,0,1.85,1.29,1.85,2.12,0,.17-.01.3-.03.38h-3.14Zm2.4-.58c.01-.53-.21-1.32-1.12-1.32-.82,0-1.18.75-1.25,1.32h2.38Z"/>
    <path class="cls-3" d="m207.02,105.85c-.21.11-.68.26-1.29.26-1.35,0-2.23-.92-2.23-2.29s.94-2.38,2.4-2.38c.48,0,.91.11,1.12.23l-.18.63c-.2-.11-.5-.21-.95-.21-1.02,0-1.58.75-1.58,1.69,0,1.04.67,1.68,1.55,1.68.47,0,.77-.11,1-.23l.17.63Z"/>
    <path class="cls-3" d="m207.97,102.75c0-.47-.01-.84-.04-1.21h.73l.04.74h.01c.23-.43.74-.84,1.48-.84.63,0,1.58.37,1.58,1.91v2.67h-.81v-2.59c0-.73-.27-1.32-1.04-1.32-.54,0-.95.38-1.1.84-.04.1-.06.24-.06.38v2.7h-.81v-3.29h.01Z"/>
    <path class="cls-3" d="m217.19,103.73c0,1.66-1.15,2.38-2.23,2.38-1.21,0-2.15-.9-2.15-2.3,0-1.51.98-2.38,2.22-2.38s2.16.94,2.16,2.3Zm-3.57.06c0,.98.57,1.72,1.37,1.72s1.37-.73,1.37-1.74c0-.75-.38-1.72-1.35-1.72-.95-.01-1.38.88-1.38,1.74Z"/>
    <path class="cls-3" d="m218.21,99.43h.81v6.59h-.81v-6.59Z"/>
    <path class="cls-3" d="m224.46,103.73c0,1.66-1.15,2.38-2.23,2.38-1.21,0-2.15-.9-2.15-2.3,0-1.51.98-2.38,2.22-2.38s2.16.94,2.16,2.3Zm-3.56.06c0,.98.57,1.72,1.37,1.72s1.37-.73,1.37-1.74c0-.75-.38-1.72-1.35-1.72-.95-.01-1.38.88-1.38,1.74Z"/>
    <path class="cls-3" d="m229.36,101.53c-.01.33-.04.68-.04,1.24v2.6c0,1.02-.2,1.66-.64,2.05-.44.41-1.07.54-1.64.54s-1.12-.13-1.49-.37l.2-.63c.3.18.75.36,1.31.36.84,0,1.45-.44,1.45-1.56v-.5h-.01c-.26.41-.73.75-1.42.75-1.11,0-1.91-.95-1.91-2.19,0-1.52,1-2.38,2.02-2.38.78,0,1.21.41,1.39.78h.01l.04-.68h.73Zm-.84,1.78c0-.14-.01-.26-.04-.37-.14-.47-.54-.87-1.14-.87-.78,0-1.34.65-1.34,1.69,0,.88.44,1.61,1.32,1.61.5,0,.95-.31,1.12-.84.04-.14.07-.3.07-.44v-.78Z"/>
    <path class="cls-3" d="m232.28,99.59l-1.12,1.32h-.58l.81-1.32h.9Zm-1.65,6.43v-4.48h.81v4.48h-.81Z"/>
    <path class="cls-3" d="m235.28,106.02l-.07-.57h-.03c-.26.36-.73.67-1.37.67-.91,0-1.37-.64-1.37-1.29,0-1.08.97-1.68,2.7-1.66v-.1c0-.37-.1-1.04-1.02-1.04-.41,0-.85.13-1.17.33l-.18-.54c.37-.24.91-.4,1.48-.4,1.37,0,1.71.94,1.71,1.83v1.68c0,.38.01.77.07,1.08h-.75Zm-.13-2.29c-.9-.01-1.89.14-1.89,1.01,0,.53.36.78.77.78.58,0,.95-.37,1.08-.75.03-.09.04-.17.04-.26v-.78h0Z"/>
  </g>
</svg>