<?xml version="1.0" encoding="UTF-8"?>
<svg id="Capa_1" data-name="Capa 1" xmlns="http://www.w3.org/2000/svg" viewBox="0 0 300 150">
  <defs>
    <style>
      .cls-1 {
        fill: #1d71b8;
      }

      .cls-2 {
        fill: #ff8f52;
      }
    </style>
  </defs>
  <g>
    <g>
      <path class="cls-2" d="m127.84,41.34v-10.67s33.27,2.96,33.27,34.27h-9.82s-1.23-24.68-23.45-23.61Z"/>
      <path class="cls-2" d="m127.84,23.84l-.19-10.17s50.77,2.77,50.45,51.43l-10.17-.35s2.96-35.53-40.1-40.92Z"/>
      <path class="cls-2" d="m140.24,57.45c0,4.22-3.43,7.62-7.65,7.62s-7.65-3.43-7.65-7.62,3.43-7.65,7.65-7.65c4.25.03,7.65,3.43,7.65,7.65Z"/>
    </g>
    <g>
      <path class="cls-1" d="m51.27,70.74c0-.66.22-1.2.66-1.64.44-.44,1.01-.66,1.64-.66.66,0,1.2.22,1.64.66.44.44.66,1.01.66,1.64v15.96c0,1.86.35,3.56,1.04,5.19.69,1.61,1.67,3.02,2.86,4.25,1.23,1.23,2.64,2.17,4.25,2.86s3.34,1.04,5.19,1.04,3.56-.35,5.19-1.04c1.61-.69,3.02-1.67,4.25-2.86,1.23-1.23,2.17-2.64,2.86-4.25s1.04-3.34,1.04-5.19v-15.96c0-.66.22-1.2.66-1.64.44-.44,1.01-.66,1.64-.66.66,0,1.2.22,1.64.66.44.44.66,1.01.66,1.64v15.96c0,2.49-.47,4.82-1.42,7.02-.94,2.2-2.23,4.09-3.84,5.7-1.61,1.61-3.53,2.9-5.7,3.84-2.2.94-4.53,1.42-7.02,1.42s-4.82-.47-7.02-1.42c-2.2-.94-4.09-2.23-5.7-3.84s-2.9-3.53-3.84-5.7c-.94-2.2-1.42-4.53-1.42-7.02v-15.96h.06Z"/>
      <path class="cls-1" d="m109.81,70.01c2.39,0,4.66.47,6.83,1.45s4.06,2.27,5.7,3.9,2.96,3.56,3.9,5.76c.98,2.2,1.45,4.53,1.45,7.02s-.47,4.75-1.42,6.89c-.94,2.17-2.23,4.06-3.84,5.7s-3.53,2.93-5.7,3.87c-2.2.94-4.56,1.42-7.08,1.42s-4.82-.44-6.99-1.35c-2.17-.88-4.06-2.14-5.7-3.75s-2.93-3.49-3.87-5.67c-.94-2.2-1.42-4.56-1.42-7.18v-27.6c0-.66.22-1.2.66-1.64.44-.44,1.01-.66,1.64-.66.66,0,1.2.22,1.64.66.44.44.66,1.01.66,1.64v16.27c1.64-1.79,3.62-3.34,5.89-4.66,2.3-1.26,4.85-1.95,7.65-2.08Zm-13.53,18.16c0,1.86.35,3.56,1.04,5.19.69,1.61,1.67,3.02,2.86,4.25,1.23,1.23,2.64,2.17,4.25,2.86s3.34,1.04,5.19,1.04,3.59-.35,5.22-1.04,3.08-1.67,4.28-2.86c1.23-1.23,2.17-2.64,2.86-4.25s1.04-3.34,1.04-5.19-.35-3.59-1.04-5.22c-.69-1.64-1.67-3.08-2.86-4.28-1.23-1.23-2.64-2.17-4.28-2.86s-3.4-1.04-5.22-1.04-3.49.35-5.07,1.01c-1.61.66-2.99,1.61-4.19,2.8-1.2,1.2-2.17,2.61-2.9,4.25-.72,1.61-1.13,3.4-1.2,5.35Z"/>
      <path class="cls-1" d="m130.33,72.18c0-.66.22-1.2.66-1.64.44-.44,1.01-.66,1.64-.66.66,0,1.2.22,1.64.66.44.44.66,1.01.66,1.64v31.63c0,.66-.22,1.2-.66,1.64-.44.44-1.01.66-1.64.66-.66,0-1.2-.22-1.64-.66-.44-.44-.66-1.01-.66-1.64v-31.63Z"/>
      <path class="cls-1" d="m165.77,78.54c-1.26-1.1-2.68-1.98-4.25-2.64-1.61-.66-3.3-1.01-5.16-1.01s-3.56.35-5.19,1.04c-1.61.69-3.02,1.67-4.25,2.86-1.23,1.23-2.17,2.64-2.86,4.28-.69,1.64-1.04,3.4-1.04,5.22s.35,3.56,1.04,5.19c.69,1.61,1.67,3.02,2.86,4.25,1.23,1.23,2.64,2.17,4.25,2.86s3.34,1.04,5.19,1.04,3.56-.35,5.16-1.01,3.02-1.61,4.25-2.8c.44-.44,1.01-.66,1.64-.66.66,0,1.2.22,1.64.66.44.44.66,1.01.63,1.67-.03.66-.31,1.29-.85,1.83-.44.44-1.07.94-1.83,1.54-.76.57-1.7,1.1-2.77,1.61s-2.27.91-3.59,1.23-2.74.47-4.28.47c-2.49,0-4.82-.44-6.99-1.35-2.17-.88-4.06-2.14-5.7-3.75s-2.93-3.49-3.87-5.67c-.94-2.2-1.42-4.56-1.42-7.18s.47-4.82,1.38-6.99,2.2-4.06,3.81-5.67c1.61-1.61,3.53-2.9,5.76-3.87,2.2-.98,4.63-1.51,7.21-1.61,1.48,0,2.86.19,4.15.57,1.26.38,2.42.82,3.43,1.35s1.92,1.07,2.74,1.67c.79.6,1.45,1.13,1.95,1.57.31.25.57.72.79,1.38s.06,1.29-.47,1.83c-.44.44-1.01.66-1.64.66-.72.06-1.29-.16-1.73-.6Z"/>
      <path class="cls-1" d="m173.45,72.18c0-.66.22-1.2.66-1.64.44-.44,1.01-.66,1.64-.66.66,0,1.2.22,1.64.66.44.44.66,1.01.66,1.64v15.96c0,1.86.35,3.56,1.04,5.19.69,1.61,1.67,3.02,2.86,4.25,1.23,1.23,2.64,2.17,4.25,2.86s3.34,1.04,5.19,1.04,3.56-.35,5.19-1.04c1.61-.69,3.02-1.67,4.25-2.86s2.17-2.64,2.86-4.25,1.04-3.34,1.04-5.19v-15.96c0-.66.22-1.2.66-1.64.44-.44,1.01-.66,1.64-.66.66,0,1.2.22,1.64.66.44.44.66,1.01.66,1.64v15.96c0,2.49-.47,4.82-1.42,7.02-.94,2.2-2.23,4.09-3.84,5.7-1.61,1.61-3.53,2.9-5.7,3.84-2.2.94-4.53,1.42-7.02,1.42s-4.82-.47-7.02-1.42c-2.2-.94-4.09-2.23-5.7-3.84s-2.9-3.53-3.84-5.7c-.94-2.2-1.42-4.53-1.42-7.02v-15.96h.06Z"/>
      <path class="cls-1" d="m230.92,70.01c2.39,0,4.66.47,6.83,1.45s4.06,2.27,5.7,3.9,2.96,3.56,3.9,5.76c.98,2.2,1.45,4.53,1.45,7.02v15.74c0,.66-.22,1.2-.66,1.64-.44.44-1.01.66-1.64.66-.66,0-1.2-.22-1.64-.66-.44-.44-.66-1.01-.66-1.64v-4.56c-1.64,1.83-3.62,3.43-5.95,4.75-2.3,1.32-4.82,1.98-7.49,1.98-2.49,0-4.82-.44-6.99-1.35-2.17-.88-4.06-2.14-5.7-3.75s-2.93-3.49-3.87-5.67c-.94-2.2-1.42-4.56-1.42-7.18s.47-4.82,1.38-6.99,2.2-4.06,3.81-5.67c1.61-1.61,3.53-2.9,5.76-3.87,2.17-.91,4.6-1.45,7.18-1.57Zm-13.5,18.16c0,1.86.35,3.56,1.04,5.19.69,1.61,1.67,3.02,2.86,4.25s2.64,2.17,4.25,2.86,3.34,1.04,5.19,1.04,3.49-.35,5.07-1.01c1.61-.66,2.99-1.61,4.22-2.8,1.23-1.2,2.2-2.61,2.9-4.22.72-1.61,1.13-3.4,1.23-5.35,0-1.83-.35-3.59-1.04-5.22-.69-1.64-1.67-3.08-2.86-4.28-1.23-1.23-2.64-2.17-4.28-2.86s-3.37-1.04-5.22-1.04-3.56.35-5.19,1.04c-1.61.69-3.02,1.67-4.25,2.86-1.23,1.23-2.17,2.64-2.86,4.28-.69,1.67-1.04,3.4-1.04,5.26Z"/>
    </g>
  </g>
  <g>
    <path class="cls-1" d="m76.92,111.37h14.38v1.57h-6.33v17.06h-1.73v-17.06h-6.33v-1.57Z"/>
    <path class="cls-1" d="m103.17,123.39v.94h-10.17c.13,2.55,1.76,4.56,4.6,4.56,1.64,0,3.27-.88,4.06-2.17l1.16.98c-1.23,1.83-3.08,2.61-5.22,2.61-3.65,0-6.14-2.61-6.14-6.42,0-3.53,2.42-6.36,6.04-6.36,3.18,0,5.67,2.23,5.67,5.85Zm-5.79-4.44c-2.39,0-4.12,1.83-4.37,3.93h8.59c-.03-2.23-1.92-3.93-4.22-3.93Z"/>
    <path class="cls-1" d="m118.15,119.65l-1.26.94c-.94-1.01-1.95-1.64-3.27-1.64-2.77,0-4.75,2.14-4.75,4.97s1.95,4.97,4.75,4.97c1.35,0,2.45-.66,3.27-1.7l1.2,1.01c-1.16,1.42-2.74,2.11-4.44,2.11-3.71,0-6.36-2.71-6.36-6.39s2.71-6.39,6.36-6.39c1.76,0,3.34.76,4.5,2.11Z"/>
    <path class="cls-1" d="m123.44,110.11v9.88h.06c.69-1.51,2.36-2.45,4.12-2.45,3.05,0,4.6,1.73,4.6,5.13v7.33h-1.57v-7.18c0-2.58-1.01-3.87-3.02-3.87-2.58,0-4.19,1.95-4.19,4.91v6.14h-1.57v-19.89s1.57,0,1.57,0Z"/>
    <path class="cls-1" d="m139.17,117.85c.03.69.03,1.76.09,2.14h.06c.69-1.51,2.36-2.45,4.12-2.45,3.05,0,4.6,1.67,4.6,5.29v7.18h-1.57v-7.11c0-2.68-1.01-3.93-3.02-3.93-2.55,0-4.19,1.86-4.19,5.04v6.04h-1.57v-8.88c0-.25-.13-3.08-.13-3.27h1.61v-.03Z"/>
    <path class="cls-1" d="m165.61,123.93c0,3.62-2.58,6.39-6.36,6.39s-6.36-2.68-6.36-6.39,2.61-6.39,6.36-6.39,6.36,2.68,6.36,6.39Zm-6.36,4.97c2.83,0,4.78-2.11,4.78-4.97s-1.95-4.97-4.82-4.97-4.75,2.11-4.75,4.97c0,2.83,1.95,4.97,4.78,4.97Z"/>
    <path class="cls-1" d="m172.25,110.11v19.89h-1.57v-19.89h1.57Z"/>
    <path class="cls-1" d="m190.07,123.93c0,3.62-2.58,6.39-6.36,6.39s-6.36-2.68-6.36-6.39,2.61-6.39,6.36-6.39,6.36,2.68,6.36,6.39Zm-6.36,4.97c2.83,0,4.78-2.11,4.78-4.97s-1.95-4.97-4.82-4.97-4.75,2.11-4.75,4.97c-.03,2.83,1.92,4.97,4.78,4.97Z"/>
    <path class="cls-1" d="m200.8,117.54c2.11,0,3.65.91,4.6,2.36h.06v-2.05h1.57v11.33c0,4.72-2.39,7.14-6.45,7.14-2.23,0-4.66-.85-5.98-2.55l1.23-1.16c1.1,1.54,2.9,2.3,4.75,2.3,3.15,0,4.88-1.86,4.88-5.44v-1.83h-.06c-.91,1.45-2.49,2.36-4.6,2.36-3.49,0-6.45-2.77-6.45-6.23,0-3.46,3.02-6.23,6.45-6.23Zm-4.88,6.23c0,2.58,2.08,4.82,4.78,4.82s4.78-2.17,4.78-4.82-2.14-4.82-4.82-4.82c-2.61,0-4.75,2.17-4.75,4.82Z"/>
    <path class="cls-1" d="m210.46,117.85h1.76l4,10.23,3.9-10.23h1.67l-6.2,15.86c-.66,1.7-1.67,2.61-3.34,2.61-.54,0-1.01-.09-1.54-.25l.16-1.48c.41.13.94.28,1.42.28.82,0,1.42-.47,1.98-1.95l1.13-2.9-4.94-12.18Z"/>
  </g>
</svg>