<?xml version="1.0" encoding="UTF-8"?>
<svg id="Capa_1" data-name="Capa 1" xmlns="http://www.w3.org/2000/svg" viewBox="0 0 300 150">
  <defs>
    <style>
      .cls-1 {
        fill: #003e70;
      }
    </style>
  </defs>
  <path class="cls-1" d="m87.1,67.27h.6c.61,0,1.06.17,1.37.52.22.25.33.89.33,1.88v6.5c0,1.7-.15,2.91-.45,3.62-.31.71-.87,1.29-1.7,1.76-.83.45-1.76.68-2.82.68-.81,0-1.51-.15-2.08-.44-.57-.29-1-.67-1.29-1.11-.31-.45-.51-1.08-.63-1.88-.12-.8-.17-1.51-.17-2.14v-6.99c0-.9.1-1.5.29-1.77.29-.42.76-.63,1.43-.63h.61v-.44h-6.94v.44h.61c.61,0,1.05.16,1.32.47s.41.96.41,1.93v6.27c0,1.93.13,3.26.38,3.96.38,1.03,1.02,1.85,1.93,2.44.9.61,2.24.92,3.98.92,1.61,0,2.88-.32,3.81-.95.93-.64,1.56-1.4,1.88-2.28.32-.89.48-2.14.48-3.74v-6.5c0-.89.09-1.45.25-1.7.33-.52.83-.8,1.45-.8h.6v-.44h-5.69v.41h.04Z"/>
  <path class="cls-1" d="m103.56,81.81c-.12-.25-.16-.71-.16-1.4v-4.62c0-.97-.09-1.7-.26-2.18-.25-.68-.6-1.16-1.02-1.45s-.93-.45-1.53-.45c-1.15,0-2.37.77-3.64,2.3v-2.3h-.51l-3.27,1.32.17.42c.31-.12.57-.17.8-.17.2,0,.36.04.49.16.12.1.22.29.28.58.06.29.09,1.08.09,2.38v4.03c0,.79-.1,1.32-.29,1.6-.19.28-.57.42-1.12.42h-.23v.42h5.37v-.42c-.6,0-.99-.06-1.18-.16s-.35-.28-.45-.51c-.09-.17-.13-.63-.13-1.37v-5.71c.93-1.02,1.86-1.54,2.81-1.54.61,0,1.03.22,1.29.67s.38,1.16.38,2.15v4.44c0,.63-.01.99-.04,1.11-.07.31-.22.52-.42.68s-.55.23-1.06.23h-.23v.42h5.37v-.42c-.52,0-.87-.06-1.08-.16-.2-.1-.33-.26-.42-.47"/>
  <path class="cls-1" d="m108.66,68.45c.33,0,.61-.12.84-.35.23-.23.35-.52.35-.84s-.12-.61-.35-.84-.51-.35-.84-.35-.63.12-.86.35c-.23.23-.35.51-.35.84s.12.61.35.84c.25.23.54.35.86.35"/>
  <path class="cls-1" d="m109.8,81.78c-.1-.22-.15-.68-.15-1.35v-8.71h-.52l-3.27,1.32.16.42c.32-.12.58-.17.8-.17.2,0,.36.04.48.15s.2.28.26.52c.07.35.1,1.11.1,2.28v4.17c0,.67-.06,1.12-.16,1.37-.1.23-.25.41-.44.51-.17.1-.54.16-1.06.16v.42h5.26v-.42c-.51,0-.87-.06-1.06-.16-.16-.12-.31-.29-.41-.51"/>
  <path class="cls-1" d="m120.24,72.48c.41,0,.68.01.81.06s.25.13.33.25c.06.07.09.16.09.28,0,.23-.09.57-.28,1l-2.53,6.21-2.52-5.99c-.16-.38-.25-.71-.25-.99,0-.25.09-.45.25-.61.16-.15.39-.22.7-.22h.33v-.44h-5.1v.44c.39.06.65.13.79.2.25.13.45.28.61.47s.32.49.49.92l3.87,9.15h.48l3.84-9.29c.22-.55.47-.95.74-1.18.16-.13.44-.22.86-.25v-.44h-3.53v.44h.01Z"/>
  <path class="cls-1" d="m132.89,72.9c-.79-.8-1.77-1.21-3-1.21-1.44,0-2.63.52-3.58,1.56s-1.43,2.49-1.43,4.33c0,1.72.47,3.07,1.38,4.09.93,1.02,2.04,1.53,3.34,1.53,1.19,0,2.2-.45,3-1.34s1.28-1.88,1.44-2.95l-.36-.23c-.35.95-.8,1.61-1.32,2.01-.52.39-1.13.58-1.85.58-1.06,0-1.99-.45-2.78-1.37-.79-.92-1.18-2.18-1.18-3.78h7.49c.01-1.34-.38-2.4-1.16-3.21m-6.31,2.53c.09-.9.39-1.61.9-2.12.52-.51,1.11-.77,1.76-.77.42,0,.83.13,1.22.38.39.25.68.6.89,1.05.13.29.2.77.25,1.47,0,0-5.02,0-5.02,0Z"/>
  <path class="cls-1" d="m141.47,71.72c-.96,0-1.89.81-2.79,2.44v-2.44h-.49l-3.27,1.32.12.42c.31-.12.58-.17.83-.17.2,0,.38.06.51.16.13.12.23.29.28.52.06.23.07.99.07,2.25v4.2c0,.63-.01,1.02-.06,1.15-.07.28-.22.48-.41.6-.26.17-.68.26-1.24.26v.42h5.54v-.42c-.49,0-.86-.07-1.12-.22s-.44-.32-.54-.54c-.15-.31-.22-.76-.22-1.37v-5.19c.38-.74.74-1.28,1.11-1.6.16-.16.32-.23.47-.23.16,0,.42.13.77.41s.65.41.93.41.52-.1.73-.32.31-.48.31-.79c0-.35-.15-.65-.42-.92-.29-.23-.65-.36-1.09-.36"/>
  <path class="cls-1" d="m149,76.83l-1.73-.84c-.74-.36-1.25-.71-1.48-1.03-.25-.32-.38-.7-.38-1.13,0-.35.17-.68.51-.97s.79-.44,1.34-.44c.73,0,1.32.2,1.79.63s.86,1.21,1.15,2.37h.39v-3.69h-.39c-.09.19-.17.31-.25.36-.07.06-.17.09-.29.09-.13,0-.41-.06-.8-.17-.61-.17-1.12-.28-1.56-.28-.97,0-1.76.31-2.37.9s-.92,1.34-.92,2.24c0,.68.17,1.25.54,1.7.35.45,1.11.97,2.25,1.54,1.15.57,1.9,1.03,2.28,1.41s.57.83.57,1.37c0,.45-.17.83-.51,1.15-.35.32-.79.48-1.32.48-.77,0-1.47-.28-2.09-.84s-1.05-1.4-1.27-2.5h-.39v3.87h.39c.1-.2.25-.31.42-.31.16,0,.38.04.64.12.86.23,1.61.35,2.27.35.92,0,1.76-.31,2.5-.9s1.12-1.4,1.12-2.38c-.01-1.25-.81-2.28-2.41-3.07"/>
  <path class="cls-1" d="m156.9,81.78c-.1-.22-.15-.68-.15-1.35v-8.71h-.52l-3.27,1.32.16.42c.32-.12.58-.17.8-.17.2,0,.36.04.48.15s.2.28.26.52c.07.35.1,1.11.1,2.28v4.17c0,.67-.06,1.12-.16,1.37-.1.23-.25.41-.44.51-.17.1-.54.16-1.06.16v.42h5.26v-.42c-.51,0-.87-.06-1.06-.16-.17-.12-.32-.29-.41-.51"/>
  <path class="cls-1" d="m155.77,68.45c.33,0,.61-.12.84-.35.23-.23.35-.52.35-.84s-.12-.61-.35-.84-.51-.35-.84-.35-.63.12-.86.35c-.23.23-.35.51-.35.84s.12.61.35.84c.25.23.52.35.86.35"/>
  <path class="cls-1" d="m170.18,81.65c-.17,0-.32-.06-.45-.16-.13-.12-.22-.31-.28-.58s-.09-1.05-.09-2.33v-12.52h-.54l-3.24,1.31.16.41c.33-.13.61-.19.81-.19.19,0,.35.06.48.16s.22.29.28.58c.06.29.09,1.05.09,2.28v1.99c-.63-.61-1.41-.92-2.37-.92-1.54,0-2.79.64-3.78,1.93-.97,1.29-1.47,2.7-1.47,4.26s.44,2.82,1.32,3.81c.89.99,1.92,1.48,3.1,1.48.58,0,1.13-.12,1.63-.36.51-.25,1.02-.64,1.56-1.19v1.56h.54l3.21-1.34-.13-.41c-.33.16-.63.22-.83.22m-2.78-.83c-.67.71-1.37,1.08-2.08,1.08-.86,0-1.63-.42-2.31-1.27-.7-.84-1.05-2.06-1.05-3.66s.36-2.78,1.08-3.59c.54-.63,1.16-.93,1.86-.93.36,0,.76.12,1.13.33.39.23.7.55.95,1,.23.44.38.93.42,1.47v5.57Z"/>
  <path class="cls-1" d="m180.52,81.59c-.12,0-.22-.04-.32-.12-.09-.07-.16-.23-.19-.47-.04-.23-.06-.87-.06-1.9v-3.68c0-1.05-.07-1.75-.22-2.08-.22-.52-.57-.9-1.03-1.15-.61-.32-1.41-.48-2.37-.48-1.25,0-2.22.29-2.92.86s-1.05,1.19-1.05,1.88c0,.35.09.64.28.84s.42.31.71.31c.31,0,.54-.1.73-.29.19-.2.28-.48.28-.84l-.03-.68c0-.35.15-.65.45-.92.29-.26.68-.41,1.18-.41.65,0,1.15.2,1.5.6.35.41.51,1.15.51,2.22v.42c-1.86.68-3.18,1.25-4,1.73-.8.48-1.37.97-1.69,1.51-.23.39-.35.84-.35,1.37,0,.83.25,1.51.73,2.02s1.11.77,1.85.77c.48,0,.93-.1,1.37-.29.28-.13.99-.63,2.09-1.48.01.65.13,1.11.35,1.37.23.26.54.41.92.41.8,0,1.64-.6,2.53-1.77v-.67c-.48.48-.8.76-.96.86-.04.04-.16.07-.28.07m-2.52-1.05c-.97.79-1.77,1.18-2.37,1.18-.44,0-.83-.19-1.18-.57-.33-.38-.51-.84-.51-1.41,0-.45.13-.86.41-1.24.26-.38.71-.74,1.34-1.09.35-.2,1.12-.54,2.31-1v4.13Z"/>
  <path class="cls-1" d="m193.04,81.65c-.17,0-.32-.06-.45-.16-.13-.12-.22-.31-.28-.58s-.09-1.05-.09-2.33v-12.52h-.54l-3.23,1.31.16.41c.33-.13.61-.19.81-.19.19,0,.35.06.48.16s.22.29.28.58c.06.29.09,1.05.09,2.28v1.99c-.63-.61-1.41-.92-2.37-.92-1.54,0-2.79.64-3.78,1.93-.97,1.29-1.47,2.7-1.47,4.26s.44,2.82,1.32,3.81c.89.99,1.92,1.48,3.1,1.48.58,0,1.13-.12,1.63-.36.51-.25,1.02-.64,1.56-1.19v1.56h.54l3.21-1.34-.13-.41c-.35.16-.63.22-.84.22m-2.78-.83c-.67.71-1.37,1.08-2.08,1.08-.86,0-1.63-.42-2.31-1.27-.7-.84-1.05-2.06-1.05-3.66s.36-2.78,1.08-3.59c.54-.63,1.16-.93,1.86-.93.36,0,.76.12,1.13.33.39.23.7.55.95,1,.23.44.38.93.42,1.47v5.57Z"/>
  <path class="cls-1" d="m211.21,81.65c-.17,0-.32-.06-.45-.16-.13-.12-.22-.31-.28-.58s-.09-1.05-.09-2.33v-12.52h-.54l-3.24,1.31.16.41c.33-.13.61-.19.81-.19.19,0,.35.06.48.16s.22.29.28.58c.06.29.09,1.05.09,2.28v1.99c-.63-.61-1.41-.92-2.37-.92-1.54,0-2.79.64-3.78,1.93-.97,1.29-1.47,2.7-1.47,4.26s.44,2.82,1.32,3.81c.89.99,1.92,1.48,3.1,1.48.58,0,1.13-.12,1.63-.36.51-.25,1.02-.64,1.56-1.19v1.56h.54l3.21-1.34-.13-.41c-.33.16-.61.22-.83.22m-2.78-.83c-.67.71-1.37,1.08-2.08,1.08-.84,0-1.63-.42-2.31-1.27-.7-.84-1.05-2.06-1.05-3.66s.36-2.78,1.08-3.59c.54-.63,1.16-.93,1.86-.93.36,0,.76.12,1.13.33.39.23.7.55.95,1,.23.44.38.93.42,1.47v5.57Z"/>
  <path class="cls-1" d="m221.03,72.9c-.79-.8-1.77-1.21-3-1.21-1.44,0-2.63.52-3.58,1.56s-1.43,2.49-1.43,4.33c0,1.72.47,3.07,1.4,4.09.93,1.02,2.04,1.53,3.34,1.53,1.19,0,2.2-.45,3-1.34s1.28-1.88,1.44-2.95l-.36-.23c-.35.95-.8,1.61-1.32,2.01-.52.39-1.13.58-1.85.58-1.06,0-1.99-.45-2.78-1.37-.79-.92-1.18-2.18-1.18-3.78h7.49c0-1.34-.39-2.4-1.18-3.21m-6.31,2.53c.09-.9.39-1.61.9-2.12.52-.51,1.11-.77,1.76-.77.42,0,.83.13,1.22.38.39.25.68.6.89,1.05.13.29.2.77.25,1.47,0,0-5.02,0-5.02,0Z"/>
  <path class="cls-1" d="m241.27,81.52c-.8.45-1.72.67-2.76.67-1.19,0-2.27-.29-3.2-.86s-1.63-1.38-2.09-2.44-.7-2.33-.7-3.78c0-1.76.25-3.23.74-4.41s1.16-2.05,2.02-2.59c.86-.54,1.82-.81,2.88-.81,1.27,0,2.36.36,3.27,1.08.9.71,1.6,1.89,2.09,3.52h.36l-.36-5.45h-.41c-.09.38-.23.67-.44.89-.16.15-.35.22-.55.22-.15,0-.38-.09-.71-.26-1.13-.57-2.27-.86-3.43-.86-1.48,0-2.86.36-4.13,1.11-1.25.74-2.24,1.77-2.97,3.11-.71,1.34-1.08,2.81-1.08,4.42,0,1.99.54,3.71,1.63,5.18,1.45,1.98,3.52,2.95,6.18,2.95,1.47,0,2.75-.33,3.82-.99,1.08-.67,2.01-1.7,2.82-3.14l-.36-.23c-.96,1.37-1.83,2.25-2.63,2.69"/>
  <path class="cls-1" d="m254.52,81.59c-.12,0-.22-.04-.32-.12-.09-.07-.16-.23-.19-.47-.04-.23-.06-.87-.06-1.9v-3.68c0-1.05-.07-1.75-.22-2.08-.22-.52-.57-.9-1.03-1.15-.61-.32-1.41-.48-2.37-.48-1.25,0-2.22.29-2.92.86s-1.05,1.19-1.05,1.88c0,.35.09.64.28.84s.42.31.71.31c.31,0,.54-.1.73-.29.19-.2.28-.48.28-.84l-.03-.68c0-.35.15-.65.45-.92.29-.26.68-.41,1.18-.41.65,0,1.15.2,1.5.6.35.41.51,1.15.51,2.22v.42c-1.86.68-3.18,1.25-4,1.73-.8.48-1.37.97-1.69,1.51-.23.39-.35.84-.35,1.37,0,.83.25,1.51.73,2.02s1.11.77,1.85.77c.48,0,.93-.1,1.37-.29.28-.13.99-.63,2.09-1.48.01.65.13,1.11.35,1.37.23.26.54.41.92.41.8,0,1.64-.6,2.53-1.77v-.67c-.48.48-.8.76-.96.86-.04.04-.15.07-.28.07m-2.52-1.05c-.97.79-1.77,1.18-2.37,1.18-.44,0-.83-.19-1.18-.57-.33-.38-.51-.84-.51-1.41,0-.45.13-.86.41-1.24.26-.38.71-.74,1.34-1.09.35-.2,1.12-.54,2.31-1v4.13Z"/>
  <path class="cls-1" d="m260.5,81.77c-.1-.22-.15-.67-.15-1.35v-14.37h-.54l-3.23,1.32.2.41c.32-.13.58-.19.79-.19.19,0,.35.06.47.16.12.1.2.29.26.57.06.28.09,1.03.09,2.25v9.84c0,.67-.06,1.12-.16,1.37-.1.23-.25.41-.42.51s-.52.16-1.02.16v.42h5.31v-.42c-.57,0-.95-.06-1.15-.17s-.36-.29-.45-.51"/>
  <path class="cls-1" d="m273.79,81.65c-.17,0-.32-.06-.45-.16-.13-.12-.22-.31-.28-.58s-.09-1.05-.09-2.33v-12.52h-.54l-3.24,1.31.16.41c.33-.13.61-.19.81-.19.19,0,.35.06.48.16s.22.29.28.58c.06.29.09,1.05.09,2.28v1.99c-.63-.61-1.41-.92-2.37-.92-1.54,0-2.79.64-3.78,1.93-.97,1.29-1.47,2.7-1.47,4.26s.44,2.82,1.32,3.81c.89.99,1.92,1.48,3.1,1.48.58,0,1.13-.12,1.63-.36.51-.25,1.02-.64,1.56-1.19v1.56h.54l3.21-1.34-.13-.41c-.33.16-.63.22-.83.22m-2.79-.83c-.67.71-1.37,1.08-2.08,1.08-.86,0-1.63-.42-2.31-1.27-.7-.84-1.05-2.06-1.05-3.66s.36-2.78,1.08-3.59c.54-.63,1.16-.93,1.86-.93.36,0,.76.12,1.13.33.39.23.7.55.95,1,.23.44.38.93.42,1.47v5.57Z"/>
  <path class="cls-1" d="m284.13,81.59c-.12,0-.22-.04-.32-.12-.09-.07-.16-.23-.19-.47-.04-.23-.06-.87-.06-1.9v-3.68c0-1.05-.07-1.75-.22-2.08-.22-.52-.57-.9-1.03-1.15-.61-.32-1.41-.48-2.37-.48-1.25,0-2.22.29-2.92.86s-1.05,1.19-1.05,1.88c0,.35.09.64.28.84s.42.31.71.31c.31,0,.54-.1.73-.29.19-.2.28-.48.28-.84l-.03-.68c0-.35.15-.65.45-.92.29-.26.68-.41,1.18-.41.65,0,1.15.2,1.5.6.35.41.51,1.15.51,2.22v.42c-1.86.68-3.18,1.25-4,1.73-.8.48-1.37.97-1.69,1.51-.23.39-.35.84-.35,1.37,0,.83.25,1.51.73,2.02s1.11.77,1.85.77c.48,0,.93-.1,1.37-.29.28-.13.99-.63,2.09-1.48.01.65.13,1.11.35,1.37.23.26.54.41.92.41.8,0,1.64-.6,2.53-1.77v-.67c-.48.48-.8.76-.96.86-.04.04-.16.07-.28.07m-2.53-1.05c-.97.79-1.77,1.18-2.37,1.18-.44,0-.83-.19-1.18-.57-.33-.38-.51-.84-.51-1.41,0-.45.13-.86.41-1.24.26-.38.71-.74,1.34-1.09.35-.2,1.12-.54,2.31-1v4.13Z"/>
  <path class="cls-1" d="m291.63,76.83l-1.73-.84c-.74-.36-1.25-.71-1.48-1.03-.25-.32-.38-.7-.38-1.13,0-.35.17-.68.51-.97s.79-.44,1.34-.44c.73,0,1.32.2,1.79.63s.86,1.21,1.15,2.37h.39v-3.69h-.39c-.09.19-.17.31-.25.36-.07.06-.17.09-.29.09-.13,0-.41-.06-.8-.17-.61-.17-1.12-.28-1.56-.28-.97,0-1.76.31-2.37.9s-.92,1.34-.92,2.24c0,.68.17,1.25.54,1.7.35.45,1.11.97,2.24,1.54,1.15.57,1.9,1.03,2.28,1.41s.57.83.57,1.37c0,.45-.17.83-.51,1.15-.35.32-.79.48-1.32.48-.77,0-1.47-.28-2.09-.84s-1.05-1.4-1.27-2.5h-.39v3.87h.39c.1-.2.25-.31.42-.31.16,0,.38.04.64.12.86.23,1.61.35,2.27.35.92,0,1.76-.31,2.5-.9s1.12-1.4,1.12-2.38c0-1.25-.8-2.28-2.4-3.07"/>
  <path class="cls-1" d="m59.05,96.72c-1.44,0-2.59,1.16-2.59,2.59s1.16,2.6,2.6,2.59c1.43,0,2.59-1.16,2.59-2.59,0-1.43-1.18-2.59-2.6-2.59m.01,4.94c-1.29,0-2.34-1.05-2.36-2.36,0-1.29,1.05-2.36,2.34-2.36s2.34,1.06,2.34,2.36c.01,1.31-1.05,2.36-2.33,2.36"/>
  <path class="cls-1" d="m59.94,100.14l-.64-.87c.26-.06.45-.16.57-.29s.19-.31.19-.49c0-.17-.06-.32-.16-.45s-.23-.22-.39-.26-.39-.07-.71-.07h-1.12v.09h.12c.1,0,.19.03.26.1.04.04.06.16.07.36v1.98c0,.17-.01.29-.06.33-.06.09-.15.13-.28.13h-.12v.09h1.31v-.09h-.12c-.12,0-.2-.04-.26-.1-.04-.06-.06-.17-.06-.36v-.89h.32l1.03,1.44h.81v-.09c-.17-.01-.31-.07-.41-.13-.09-.07-.22-.2-.36-.42m-1.27-.96h-.12v-1.28c.16-.03.26-.04.35-.04.2,0,.36.06.48.17s.17.28.17.47-.07.35-.22.48c-.16.15-.38.2-.67.2"/>
  <path class="cls-1" d="m45.28,63.5c.07-.06.13-.13.19-.19.13-1.31,1.99-1.38,1.43-2.73-.61-.12-1.12-.44-1.61-.63-.25-.19-.55-.25-.93-.19-1.61.81-2.17,2.17-2.85,3.59-.06.25-.17.44-.32.61-.01.03-.01.07-.04.1-.1.22-.15.42-.26.58-.09.2-.2.36-.31.51-.26.32-.54.6-.63,1.11.15.33.32.52.63.63.09.01.17.04.31.06.09.1.19.12.26.12h.04c.13,0,.2-.12.32-.19.12-.06.26-.12.38-.06,1.25-1.15,2.24-2.15,3.4-3.32"/>
  <path class="cls-1" d="m23.09,87.66c1.25-1.24,2.41-2.6,3.4-4.04.17-.22.32-.45.47-.7.17-.29.33-.58.47-.84-.13-.16-.29-.31-.47-.42-.15-.12-.32-.19-.47-.26-2.6-1.25-4.1,3.17-6.38,4.04-.44.31-.32.74,0,1.11.93.44,1.56,1.79,2.98,1.12"/>
  <path class="cls-1" d="m37.12,56.38c-3.17,1.02-1.45,4.77-1.93,7.24l-.26.25c.13.44-.19.99.26,1.25.79.42,1.44-.39,1.93-.83.03-.01.03-.03.04-.04.55-2.36,1.22-4.84,1.6-7.14.06-1.05-1.11-.44-1.6-.74-.01,0-.03,0-.04.01"/>
  <path class="cls-1" d="m48.03,74.6c-.68-.12-1.73-.12-2.54-.42h-.19c-.67-.06-1.29,0-1.56.67,0,.87.49,1.12.81,1.8.25.13.49.25.74.38,1.56.63,3.29,1.12,4.97,1.61.49,0,1.43.12,1.75-.57.44-.92-.32-1.56-.51-2.28-1.11-.51-2.3-.81-3.48-1.19"/>
  <path class="cls-1" d="m25.06,71.33c.19-1.05-.25-1.56-.68-2.41-.87-.99-1.99-1.29-3.11-1.92-1.35-.57-2.79-2.18-4.22-1.06-1.24,4.54,4.52,2.98,6.65,5.28.51.12.95.63,1.37.12"/>
  <path class="cls-1" d="m25.56,59.67c.25.61.55,1.24.92,1.85.15.25.31.49.47.73.92,1.35,2.01,2.65,3.01,3.8.42.12,1.06.23,1.38-.07.01-.03.03-.03.04-.06.51-.86.33-1.59-.04-2.25-.48-.83-1.29-1.56-1.57-2.27-1.11-1.12-.99-3.23-2.73-3.61-.03.01-.06.01-.1.03-.16.07-.31.19-.47.28-.47.39-.79,1.02-.9,1.59"/>
  <path class="cls-1" d="m15.9,77.61v.19c.03.63.36,1.28.84,1.67,2.79.48,4.84-.87,7.39-1.06.55-.25.44-.8.12-1.25-2.6-.99-5.83-1.12-8.32.13-.01.1-.03.22-.03.32"/>
  <path class="cls-1" d="m41.19,82.13c.07.25.2.44.32.63.8,1.12,2.6,1.92,3.78,2.97.25.19.51.44.68.68.74.44,1.57-.25,2.17-.81.25-.61.06-1.31-.25-1.79-.81-.81-1.67-1.31-2.62-1.75-1.24-.63-2.54-1.18-3.72-2.05l-.06.07c-.12.23-.25.49-.32.74-.01.07-.03.15-.04.22-.06.33-.06.64,0,.92.03.06.06.12.06.17"/>
  <path class="cls-1" d="m45.48,68.71h-.2c-.61.19-1.24.63-1.67,1.24.44.63,1.05.63,1.67.81v-.06c1.93-.51,3.91-1.25,5.96-1.57.44-.44,1.05-.87.87-1.35-.26-.99-.87-1.8-1.75-2.18-1.24.44-1.86,1.43-3.17,1.69-.41.67-1.59.67-1.72,1.43"/>
  <path class="cls-1" d="m40.41,88.31c-1.11-1.45-.64-4.64-3.27-4.89h-.07c-2.3.87-.06,2.98-.13,4.22.07.16.15.32.2.49.44,1.21.54,2.63,1.41,3.65,1,.31,1.48-.31,2.05-.95.12-.15.25-.29.38-.42.15-.57-.09-1.22-.38-1.77-.06-.12-.13-.22-.19-.33"/>
  <path class="cls-1" d="m31.36,84.27c-.76.31-.95.93-1.38,1.59-.31.38-.19,1.05-.55,1.35l-.12.81c-.93.99-.93,2.05-1.37,3.42.44,1.34,2.69,1.06,3.43-.06.12-.19.2-.39.23-.63.81-1.86,1.31-4.04,1.43-6.08-.44-.38-1.19-.38-1.63-.44-.01,0-.03.03-.04.03"/>
  <path class="cls-1" d="m11.15,80.48c-.25-.2-.51-.31-.79-.32-.28-.01-.63.04-1.06.17l-1.79.52c-.25.07-.41.1-.48.07-.17-.04-.29-.16-.33-.33l-.04-.16-.12.04.47,1.56.12-.04-.04-.16c-.04-.16-.04-.31.03-.42.04-.07.22-.16.49-.25l1.79-.52c.47-.15.81-.19,1.03-.17.22.01.42.13.63.32.19.19.33.42.41.71.07.22.09.42.04.61-.04.17-.1.33-.2.45-.1.12-.25.23-.47.32-.22.09-.41.17-.58.22l-1.92.57c-.25.07-.42.1-.51.06-.15-.04-.23-.16-.29-.33l-.06-.17-.12.04.57,1.9.12-.04-.06-.17c-.04-.17-.04-.31.01-.41s.23-.19.51-.26l1.72-.51c.52-.16.87-.31,1.05-.42.25-.19.42-.44.52-.73.09-.29.06-.68-.07-1.16-.13-.44-.32-.77-.57-.97"/>
  <path class="cls-1" d="m6.55,78.66c.04-.07.15-.17.29-.32l3.18-.2c.26-.01.42,0,.49.04.12.07.19.2.2.41v.16s.15-.01.15-.01l-.1-1.6h-.13s.01.17.01.17c.01.17-.03.31-.12.41-.07.07-.25.1-.52.13l-2.82.17,3.5-3.26v-.12s-3.88.25-3.88.25c-.26.01-.42,0-.49-.04-.12-.07-.19-.2-.2-.39v-.17s-.15.01-.15.01l.1,1.59h.13v-.16c-.03-.17.01-.31.1-.41.07-.06.23-.1.52-.13l2.65-.16-3.26,3.02.09,1.24h.12c-.01-.15,0-.25.01-.32.03-.13.07-.25.12-.31"/>
  <path class="cls-1" d="m6.26,72.93c.01-.1.04-.2.12-.29.04-.07.1-.12.16-.13.07-.01.23-.01.47,0l2.95.31c.28.01.45.07.51.13.1.1.15.25.13.42v.16s.12.01.12.01l.2-1.95h-.13s-.01.15-.01.15c-.01.12-.04.22-.12.31-.04.07-.1.12-.16.12-.07.01-.22.01-.47,0l-2.95-.31c-.28-.03-.44-.07-.51-.15-.1-.1-.15-.23-.12-.42v-.16s-.12-.01-.12-.01l-.2,1.96h.13v-.15Z"/>
  <path class="cls-1" d="m6.7,69.67c.06-.06.13-.12.22-.16.04-.03.19-.04.41-.07l4.28-.61.03-.12-3.34-2.59c-.2-.16-.33-.29-.41-.45-.04-.1-.07-.23-.06-.39l-.12-.03-.38,1.35.12.04s.03-.04.03-.06c.07-.15.13-.25.2-.29.07-.06.15-.06.22-.04.1.03.26.13.48.31l2.28,1.75-2.91.42c-.26.04-.44.04-.55.01-.09-.03-.13-.07-.17-.15-.03-.07-.03-.22,0-.42l-.12-.03-.49,1.8.12.04c.06-.15.12-.25.17-.32"/>
  <path class="cls-1" d="m13.11,62.08l-.07.12c.17.26.31.48.36.67.04.15.06.28.03.39-.03.12-.1.29-.22.52l-.36.7c-.06.12-.1.19-.16.22-.04.03-.09.04-.13.03-.04,0-.16-.06-.35-.15l-1.34-.7.47-.89c.09-.17.17-.29.26-.35.09-.07.17-.1.26-.1.07,0,.22.04.42.12l.06-.12-1.43-.73-.06.12c.22.13.35.28.39.42.03.12-.01.29-.13.52l-.47.9-1.61-.83.58-1.12c.1-.2.19-.33.26-.39.09-.07.19-.12.31-.13.1,0,.28.03.51.1l.06-.12-.92-.42-1.63,3.14.12.06.07-.15c.09-.17.19-.26.31-.29.09-.01.26.03.51.17l2.65,1.37c.2.1.33.17.38.23s.07.12.07.2c0,.12-.01.22-.07.31l-.07.15.12.06,1.61-3.14-.79-.9Z"/>
  <path class="cls-1" d="m11,59.27c.1-.13.23-.2.36-.2.1,0,.26.07.48.26l2.31,1.86c.2.16.32.28.33.36.04.15,0,.29-.12.45l-.1.15.09.07,1.24-1.53-.09-.07-.12.15c-.1.13-.22.19-.35.2-.09,0-.25-.09-.48-.28l-1.05-.83s.04-.06.07-.07c.01-.03.04-.04.06-.07.04-.06.1-.15.17-.23l2.65.13.77-.96-.1-.07c-.17.17-.36.29-.52.35-.17.06-.45.07-.81.06l-1.61-.09c.17-.36.23-.67.19-.95s-.17-.51-.41-.68c-.2-.16-.44-.25-.68-.23-.25.01-.48.07-.67.2-.2.13-.45.39-.76.77l-1.05,1.31.1.09.09-.15Zm1.15-1.22c.19-.23.41-.35.65-.38.26-.03.49.04.71.23.23.17.35.42.35.71.01.28-.13.6-.39.95-.01.01-.03.04-.06.06-.01.03-.04.06-.07.09l-1.48-1.19c.1-.2.2-.36.29-.47"/>
  <path class="cls-1" d="m15.86,55.96c.17.07.36.1.57.09.22-.01.54-.06.97-.15s.71-.13.83-.15c.17-.01.31.01.44.06.12.04.22.12.29.2.13.15.17.33.16.55-.03.22-.15.42-.36.6-.19.16-.39.26-.63.31-.22.04-.42.04-.61-.01-.17-.06-.39-.2-.67-.41l-.09.09,1.02,1.19.1-.07c-.06-.09-.09-.16-.09-.22.01-.04.03-.09.07-.13.04-.03.17-.1.39-.19.22-.09.35-.15.41-.19.1-.06.2-.13.31-.22.33-.28.51-.6.55-.96.04-.38-.04-.68-.28-.96-.12-.13-.26-.25-.44-.32-.17-.07-.36-.1-.57-.1-.2.01-.54.06-1,.16-.58.13-.99.17-1.21.13-.15-.03-.28-.09-.36-.19-.12-.15-.17-.32-.15-.52.03-.2.12-.39.31-.54.16-.13.35-.22.57-.28.22-.04.42-.03.61.04.2.07.41.2.63.41l.1-.07-1.03-1.21-.1.07c.06.1.07.17.07.22,0,.06-.03.09-.07.13-.04.03-.13.07-.25.12-.29.09-.52.2-.71.36-.31.26-.47.55-.51.9-.04.35.04.65.26.9.15.17.29.28.47.35"/>
  <path class="cls-1" d="m18.37,52.07c.09-.06.19-.09.31-.1.09-.01.15.01.19.04.06.06.16.17.28.36l1.59,2.52c.15.23.22.39.2.49-.01.15-.1.26-.26.36l-.13.07.06.1,1.67-1.05-.07-.1-.13.09c-.09.06-.19.09-.31.1-.09,0-.15-.01-.2-.04-.06-.04-.16-.17-.29-.36l-1.59-2.5c-.15-.23-.2-.39-.2-.48.01-.15.1-.26.26-.36l.13-.09-.06-.1-1.66,1.05.07.1.15-.1Z"/>
  <path class="cls-1" d="m21.08,50.37c.16-.06.31-.07.42-.01.09.04.19.2.29.47l1.13,2.75c.1.23.15.39.13.48-.03.15-.13.25-.31.33l-.16.07.04.12,1.9-.79c.81-.35,1.34-.81,1.56-1.44.19-.55.16-1.11-.07-1.7-.17-.44-.45-.79-.79-1.03-.35-.25-.71-.38-1.09-.39-.39,0-.9.12-1.53.39l-1.73.71.04.12.15-.07Zm1.75-.58c.49-.2.97-.2,1.44,0s.81.6,1.06,1.18c.23.58.28,1.11.09,1.59-.17.48-.49.81-.99,1-.17.07-.41.13-.7.19l-1.5-3.61c.2-.15.41-.26.6-.35"/>
  <path class="cls-1" d="m28.82,52.38v-.12c-.23.01-.38.01-.47-.03-.07-.04-.12-.1-.13-.16-.01-.09,0-.23.04-.41l.19-.77,1.75-.31.39.61c.12.19.2.33.2.44.01.07-.01.15-.06.2s-.16.12-.35.15l.03.13,1.79-.31-.03-.15c-.19.01-.33-.01-.47-.07-.12-.07-.26-.25-.44-.54l-2.22-3.49h-.12s-.95,4.01-.95,4.01c-.09.35-.17.6-.26.71-.04.06-.16.13-.35.2l.03.12,1.41-.23Zm.16-3.74l1.08,1.7-1.56.28.48-1.98Z"/>
  <path class="cls-1" d="m36.65,51.28c.41-.41.64-.93.67-1.57.03-.48-.06-.9-.25-1.28-.2-.38-.48-.64-.81-.83-.35-.17-.87-.28-1.56-.31l-1.86-.1v.12h.16c.17.03.31.07.39.19.06.07.07.25.06.55l-.16,2.95c-.01.26-.04.44-.1.49-.09.12-.22.17-.42.16h-.17s0,.12,0,.12l2.05.12c.87.04,1.56-.16,2.01-.61m-2.75.23l.2-3.9c.26-.06.49-.07.7-.06.54.01.97.23,1.31.61.32.39.47.89.44,1.53-.03.63-.23,1.12-.6,1.47-.36.35-.81.51-1.32.48-.2,0-.44-.04-.73-.13"/>
  <path class="cls-1" d="m43.68,53.27c.52-.26.89-.7,1.12-1.29.17-.45.22-.89.15-1.29-.07-.42-.25-.76-.52-1.03-.29-.28-.74-.54-1.38-.77l-1.75-.65-.04.12.16.06c.16.06.26.16.32.28.03.09,0,.26-.1.54l-1.05,2.76c-.09.25-.17.39-.25.44-.12.09-.28.1-.45.03l-.16-.07-.04.13,1.92.73c.8.32,1.5.33,2.08.04m-1.32-4.26c.28.03.49.09.68.16.51.19.86.51,1.05.97s.17.99-.04,1.59c-.22.58-.55,1-1.02,1.22-.45.22-.92.25-1.43.06-.17-.07-.39-.19-.64-.35l1.4-3.65Z"/>
  <path class="cls-1" d="m44.55,54.33l-.07.1,2.98,1.9.96-.76-.12-.07c-.28.16-.52.26-.7.31-.15.03-.28.03-.39,0s-.29-.12-.51-.26l-.65-.42c-.1-.07-.17-.13-.19-.17-.03-.04-.03-.09-.03-.15.01-.04.07-.16.17-.33l.81-1.27.86.54c.16.1.26.2.32.29.06.09.07.17.07.26-.01.07-.06.2-.15.42l.1.06.86-1.34-.1-.07c-.15.2-.31.32-.47.35-.12.03-.28-.04-.51-.19l-.84-.55.99-1.53,1.06.68c.19.12.32.22.38.31.07.1.1.2.1.31s-.04.28-.13.51l.12.07.49-.87-2.98-1.92-.07.12.15.09c.16.1.25.22.26.33.01.09-.06.25-.22.49l-1.61,2.52c-.12.19-.22.31-.28.35-.06.04-.13.06-.22.06-.1,0-.22-.04-.31-.1l-.15-.06Z"/>
  <path class="cls-1" d="m52.04,60.58c.33.1.74.12,1.21.01v-.13c-.48.04-.84.03-1.09-.07-.25-.07-.47-.25-.67-.47-.22-.26-.36-.54-.42-.84s-.01-.61.13-.92c.15-.31.36-.6.68-.86.38-.33.74-.55,1.09-.67s.67-.13.95-.06c.28.09.52.23.71.47.23.28.36.57.39.92.01.32-.1.7-.36,1.11l.07.09,1.11-1.12-.07-.09c-.1.04-.19.07-.28.07-.06,0-.12-.03-.15-.07-.03-.03-.06-.09-.07-.2-.09-.35-.25-.64-.47-.9-.28-.32-.61-.55-1.02-.67-.39-.13-.8-.15-1.24-.06-.42.1-.81.29-1.15.6-.42.38-.7.81-.8,1.32-.15.68.03,1.32.52,1.89.26.32.57.54.92.65"/>
  <path class="cls-1" d="m55.14,65.42c.03-.13.15-.33.36-.6l2.57-3.24-.06-.1-4.09.41c-.35.03-.61.03-.76-.01-.07-.03-.17-.12-.29-.26l-.12.06.7,1.27.12-.06c-.1-.2-.13-.35-.12-.44.01-.09.04-.13.12-.17.07-.04.2-.07.41-.09l.79-.07.86,1.56-.45.57c-.15.17-.26.29-.35.35-.06.04-.15.04-.22,0-.07-.03-.16-.12-.26-.28l-.1.06.87,1.59.12-.06c-.12-.17-.13-.33-.1-.47m-.13-3.34l2.01-.19-1.25,1.57-.76-1.38Z"/>
  <path class="cls-1" d="m57.55,69.74v-.12c-.32-.03-.55-.09-.71-.16s-.29-.17-.38-.29c-.09-.12-.19-.35-.29-.68l-.1-.32c-.09-.29-.12-.45-.12-.52,0-.06.03-.12.06-.15.06-.04.17-.12.35-.16l2.76-.83c.26-.09.44-.12.51-.1.09.01.16.06.23.13.07.07.15.23.22.47l.12-.03-.6-1.99-.12.04.04.17c.06.16.04.31-.03.41-.06.09-.22.16-.49.25l-2.84.86c-.25.07-.42.1-.49.07-.15-.04-.25-.16-.31-.35l-.06-.16-.12.03,1.02,3.4,1.34.03Z"/>
  <path class="cls-1" d="m56.85,71.11c-.13-.07-.2-.2-.23-.39v-.17s-.15.01-.15.01l.17,2.04c.07.89.38,1.53.89,1.92.47.35,1.02.49,1.64.44.48-.04.89-.19,1.24-.44.35-.25.57-.55.7-.93.13-.36.16-.9.1-1.59l-.16-1.86h-.13s.01.19.01.19c.01.17-.03.31-.12.39-.06.06-.25.12-.52.13l-2.95.26c-.26.04-.42.04-.49,0m3.97.38c.09.25.13.48.15.68.04.54-.1,1-.44,1.38-.33.36-.81.6-1.45.64-.63.04-1.13-.07-1.54-.39-.39-.32-.63-.73-.67-1.25-.01-.19-.01-.44.04-.71l3.91-.35Z"/>
  <path class="cls-1" d="m56.47,78.7l-.25,1.79.13.03c.04-.19.1-.33.22-.42.1-.09.32-.17.64-.26l4-1.06v-.12s-3.5-2.11-3.5-2.11c-.31-.19-.51-.35-.61-.48-.04-.07-.07-.19-.07-.38h-.13s-.2,1.41-.2,1.41h.13c.04-.2.1-.33.16-.39s.13-.09.2-.07c.09.01.22.07.38.16l.68.41-.25,1.76-.7.19c-.22.06-.38.09-.48.07-.07-.01-.13-.04-.17-.13-.04-.07-.06-.19-.04-.38h-.13Zm1.99-1.35l1.73,1.05-1.95.52.22-1.57Z"/>
  <path class="cls-1" d="m57.14,84.28c.16-.12.42-.32.79-.65.44-.41.77-.64.97-.71.15-.06.28-.06.41-.01.17.07.31.19.39.38.07.19.09.39,0,.63-.07.2-.19.38-.35.52s-.35.25-.55.28c-.2.03-.45.03-.76-.03l-.04.12,1.5.52.04-.12c-.09-.06-.15-.12-.17-.16-.01-.04-.01-.1,0-.16.01-.04.07-.13.17-.22.2-.22.33-.45.42-.67.13-.36.13-.71-.01-1.03-.15-.32-.36-.52-.68-.64-.17-.06-.36-.07-.54-.04-.17.03-.35.1-.54.2-.17.12-.44.32-.77.61-.33.31-.55.48-.64.54-.15.09-.28.15-.39.16-.13.01-.25.01-.36-.01-.19-.07-.33-.2-.42-.41s-.07-.44.01-.7c.07-.23.2-.42.38-.58.16-.16.35-.25.52-.29.17-.03.45-.03.77.03l.04-.12-1.48-.52-.04.12c.1.04.16.1.17.15s.01.09,0,.15c-.03.06-.1.17-.23.36-.15.19-.23.31-.26.38-.06.1-.12.22-.16.35-.15.41-.13.77.01,1.11.15.33.38.57.71.68.17.06.35.07.52.06.22-.09.39-.15.57-.25"/>
  <path class="cls-1" d="m15.28,91.64l.07.07c.07.07.13.15.13.23,0,.06-.06.15-.17.28l-1.19,1.37c-.12.12-.19.19-.23.2-.09.03-.17,0-.26-.07l-.09-.07-.06.06,1.64,1.43.68-.41-.04-.06c-.17.09-.31.13-.41.15-.12.01-.2,0-.29-.03-.09-.04-.22-.13-.38-.26l-.16-.15c-.13-.12-.2-.19-.23-.23-.01-.03-.03-.06-.01-.1.01-.04.06-.12.13-.19l1.16-1.34c.12-.13.19-.19.23-.22.04-.01.1-.01.16,0,.06.03.15.07.26.17l.04-.06-.96-.83-.03.06Z"/>
  <path class="cls-1" d="m19.6,95.29c.1-.03.2-.03.29.04l.09.06.06-.06-.8-.6-.04.06.09.06c.09.06.13.15.15.22.01.06-.04.16-.15.31l-.68.92c-.17.23-.32.39-.44.45-.12.07-.26.1-.42.07-.16-.01-.32-.09-.47-.19-.1-.09-.19-.17-.25-.28-.04-.1-.07-.2-.06-.29,0-.09.04-.2.1-.33.07-.13.13-.23.2-.32l.73-.97c.1-.13.17-.2.23-.22.09-.03.17-.01.26.06l.09.06.04-.06-.97-.71-.04.06.09.07c.09.06.13.12.15.2,0,.07-.04.17-.15.31l-.65.89c-.2.26-.32.48-.36.6-.06.19-.04.36.01.55.07.17.22.36.47.54.23.16.44.25.64.26.2,0,.36-.03.51-.13.15-.09.29-.25.45-.48l.68-.92c.06-.13.12-.19.16-.22"/>
  <path class="cls-1" d="m22.98,97.69c.07-.15.15-.22.19-.23.09-.04.17-.03.28.03l.09.06.04-.07-.68-.41-1.98,1.4.23-2.41-.68-.41-.04.07c.1.06.16.1.2.16.03.04.04.1.04.15,0,.06-.04.15-.1.26l-.93,1.59c-.07.13-.13.22-.19.23-.07.03-.16.03-.26-.03l-.09-.04-.04.06.84.49.04-.07-.09-.04c-.09-.06-.15-.13-.16-.2-.01-.06.03-.15.12-.31l.95-1.63-.25,2.59.06.03,2.12-1.5-.95,1.61c-.09.13-.15.22-.19.25-.07.04-.17.03-.28-.04l-.09-.04-.04.06,1.03.6.04-.06-.07-.04c-.1-.06-.15-.13-.17-.2,0-.06.03-.16.12-.31l.89-1.57Z"/>
  <path class="cls-1" d="m25.14,98.23l.1.04.03-.07-1.09-.49-.03.07.09.04c.06.03.12.07.15.12s.04.09.04.12c0,.04-.03.15-.09.28l-.76,1.64c-.07.15-.13.25-.17.28-.07.04-.16.03-.28-.01l-.09-.04-.03.07,1.09.49.03-.06-.09-.04c-.06-.03-.12-.07-.15-.13-.03-.04-.04-.09-.04-.12,0-.06.03-.15.09-.28l.74-1.66c.07-.16.13-.23.17-.26.09-.03.17-.03.28.01"/>
  <path class="cls-1" d="m28.58,99.41l-.92-.31-.03.07.09.03c.1.04.17.09.2.16.01.04,0,.16-.04.32l-.51,1.54-.96-2.54-.73-.25-.03.07c.09.03.13.06.17.09.07.04.12.09.15.13s.06.12.12.23l-.63,1.85c-.06.15-.09.25-.13.26-.06.06-.16.06-.28.03l-.09-.03-.03.07.93.32.03-.07-.09-.04c-.1-.03-.17-.09-.2-.16-.03-.06,0-.16.04-.32l.55-1.63,1.03,2.72.07.03.76-2.24c.06-.15.1-.25.15-.26.07-.06.16-.06.28-.03l.1.03v-.07Z"/>
  <path class="cls-1" d="m31.04,102.2l-.54-2.47h-.07s-1.38,2.08-1.38,2.08c-.13.19-.22.31-.31.35-.04.03-.12.04-.23.04v.07s.86.16.86.16v-.07c-.12-.04-.2-.07-.23-.12s-.04-.09-.04-.12c0-.06.04-.13.12-.23l.26-.39,1.08.19.09.44c.03.15.03.23.03.29-.01.04-.03.07-.07.1s-.13.03-.23.03v.07s1.08.19,1.08.19v-.07c-.1-.03-.19-.07-.23-.13-.07-.09-.12-.22-.16-.41m-1.48-.84l.68-1.03.26,1.21-.95-.17Z"/>
  <path class="cls-1" d="m40.8,101.05c-.07-.09-.16-.16-.28-.2-.1-.06-.31-.12-.6-.19-.35-.09-.58-.17-.7-.26-.09-.06-.12-.13-.15-.2-.03-.12,0-.22.06-.32.09-.1.17-.17.32-.2.13-.03.26-.03.39,0,.13.04.25.12.33.19.09.1.16.23.23.39h.07s-.23-.96-.23-.96h-.07c0,.07,0,.13-.01.15-.01.03-.04.04-.07.06s-.09,0-.17-.01c-.17-.03-.35-.03-.48,0-.23.06-.41.17-.52.35-.12.17-.15.36-.1.57.03.12.07.2.16.29.07.09.16.16.28.2.12.06.31.13.58.19.26.07.42.13.49.16.09.04.16.1.22.15.06.06.09.13.1.19.03.12.01.23-.07.35-.07.12-.2.19-.36.23-.15.04-.29.04-.42,0-.13-.03-.25-.09-.33-.17-.09-.07-.16-.22-.25-.41h-.07s.23.95.23.95h.07c0-.07,0-.13.01-.15.01-.03.04-.04.07-.06s.13,0,.26.01c.15.01.23.01.28.01.07,0,.15-.01.23-.03.25-.06.44-.19.57-.38.13-.19.16-.39.1-.6-.04-.12-.1-.2-.17-.29"/>
  <path class="cls-1" d="m43.11,98.75c-.13-.09-.28-.13-.42-.12-.15,0-.35.04-.58.13l-.96.35.03.07.1-.04c.1-.03.19-.03.26,0,.06.03.12.13.16.29l.63,1.7c.06.15.07.25.06.31-.01.09-.09.16-.2.19l-.1.04.03.07,1.13-.41-.03-.07-.1.04c-.1.04-.19.04-.25,0-.04-.03-.1-.13-.17-.29l-.28-.77c.09-.01.17-.03.25-.04.09-.01.15-.04.22-.06.26-.1.44-.23.52-.42s.1-.38.03-.6c-.09-.19-.17-.31-.32-.38m-.13,1.02c-.06.15-.16.23-.29.28-.04.01-.09.03-.15.04-.06.01-.12.03-.19.03l-.41-1.09c.1-.07.17-.1.25-.13.12-.04.22-.06.32-.04s.2.07.28.15c.09.07.15.17.19.29.06.19.06.33,0,.48"/>
  <path class="cls-1" d="m46.95,99.48c-.09-.03-.2-.1-.35-.23l-1.92-1.66-.06.03.13,2.5c.01.23,0,.38-.03.47-.01.04-.07.1-.16.17l.03.07.79-.39-.03-.06c-.13.06-.22.07-.26.06-.06-.01-.09-.03-.1-.07-.03-.04-.04-.13-.04-.25l-.03-.48.97-.48.33.29c.1.09.17.17.2.22.01.04.01.09-.01.13-.01.04-.07.1-.17.15l.03.07.99-.49-.03-.07c-.1.03-.19.04-.28.03m-2.05-.03l-.06-1.24.93.81-.87.42Z"/>
  <path class="cls-1" d="m49.9,97.61c-.1,0-.28-.04-.48-.13l-.92-.35c.16-.17.26-.35.29-.51.03-.17-.01-.32-.1-.47-.09-.15-.2-.22-.35-.26-.15-.06-.29-.06-.44-.01s-.33.15-.6.31l-.86.57.04.06.09-.06c.09-.06.17-.07.25-.06.06.01.13.1.23.25l.99,1.51c.09.15.13.23.13.28,0,.09-.04.17-.15.23l-.09.06.04.06,1-.65-.04-.06-.09.06c-.09.06-.16.07-.25.04-.06-.01-.13-.09-.23-.25l-.45-.68s.03-.03.06-.04c.01-.01.03-.01.06-.03.04-.03.09-.06.15-.1l1.51.57.63-.41-.04-.06c-.15.1-.28.15-.39.15m-1.53-.71c-.06.17-.19.33-.42.48-.01,0-.03.01-.04.03-.01,0-.04.01-.06.03l-.64-.97c.1-.1.19-.16.25-.2.16-.1.31-.13.47-.1.15.03.28.12.38.26.1.16.13.32.07.48"/>
  <path class="cls-1" d="m52.11,94.36c-.01-.07.03-.15.1-.22l.04-.04-.04-.06-.83.7.06.06c.09-.07.16-.12.2-.13.04-.01.1-.01.13.01.06.01.12.09.2.19l.52.63c-.03.1-.09.19-.15.28-.06.09-.13.15-.2.22-.13.12-.29.19-.48.22-.2.03-.41-.01-.63-.12s-.42-.26-.58-.47c-.22-.25-.33-.52-.36-.8-.04-.33.09-.63.36-.86.2-.16.41-.25.64-.23.16.01.35.09.54.2l.06-.04-.63-.64-.06.06c.04.06.06.1.07.13,0,.03-.01.06-.03.07-.01.01-.07.04-.15.07-.16.06-.28.1-.35.15-.07.03-.16.09-.23.16-.22.17-.36.38-.45.61-.1.26-.12.54-.06.84.06.25.16.47.32.65.22.26.49.42.81.49.44.09.87-.04,1.28-.39.15-.12.26-.25.36-.38.09-.13.17-.28.25-.45l-.55-.67c-.12-.1-.17-.17-.19-.25"/>
  <path class="cls-1" d="m53.68,91.19c-.39.01-.7.15-.95.41-.25.28-.38.58-.38.95,0,.41.16.77.48,1.08.32.29.67.45,1.05.44.38,0,.7-.15.96-.42.26-.28.38-.61.36-1-.03-.39-.19-.73-.49-1.02-.31-.28-.65-.42-1.03-.42m1.05,2.34c-.16.19-.38.26-.61.25-.31-.03-.64-.19-.97-.51-.33-.31-.51-.61-.55-.9-.03-.23.04-.45.2-.63.19-.2.39-.29.64-.26.31.01.63.2.97.52.33.31.51.58.54.84.04.26-.03.49-.22.68"/>
  <path class="cls-1" d="m37.13,82.42c1.57-.33,2.59-1.29,3.46-2.41.19-.25.38-.52.57-.8.03-.01.03-.04.04-.06.13-.13.2-.31.32-.45.38-.55.81-1.18,1.18-1.67.86-2.37.17-5.03-1.19-6.95-.06-.13-.19-.25-.32-.44-.01-.03-.01-.04-.04-.07-.13-.15-.28-.28-.38-.44-.06-.04-.13-.1-.17-.16-.93-.79-2.08-1.8-3.46-2.15-.45-.1-.93-.15-1.45-.1-.48-.12-.99-.19-1.43-.19-.41-.01-.81.01-1.21.07-.58.09-1.15.25-1.69.44-1.02.38-2.02.87-3,1.29-.57.52-1,1.08-1.4,1.66-.16.26-.32.51-.47.77-.63,1.24-.92,2.54-.86,3.98h-.07c.31,1.54.38,3.23.93,4.58.13.29.29.6.47.87.09.13.19.25.29.36.96,1.38,2.46,2.06,4.12,2.31.55.09,1.12.12,1.69.12.41,0,.83-.03,1.22-.06.81-.07,1.63-.26,2.37-.44.15-.01.32-.04.48-.07m-2.88-1.05h-.31c-.31.06-.6.06-.9.04-.58-.04-1.15-.2-1.69-.44-.93-.41-1.75-1-2.37-1.53-1.37-2.54-1.92-5.22-.38-8.01.61-1.02,1.59-1.95,2.75-2.53.54-.26,1.11-.44,1.69-.52.29-.04.6-.06.92-.06h.31c.97,0,1.96.17,2.86.52,1.06.41,2.04,1.03,2.84,1.89.19.47.42.93.63,1.4.25.58.45,1.21.49,1.89.03.03.06.06.07.1.03.06.04.1.04.13.15.32.15.63,0,.93,0,.06-.01.1-.04.15-.15.39-.38.8-.38,1.28-.06.15-.12.29-.17.44-.76,1.57-1.98,2.82-3.46,3.56-.89.47-1.85.71-2.89.76"/>
  <path class="cls-1" d="m39.59,77.04c.07-.38,0-.68.38-1.06,0-.99.19-1.75-.25-2.41.44-.44-.19-.63-.13-1.12-.54-1.09-1.47-1.82-2.46-2.36-.26-.15-.51-.26-.77-.38-.68-.17-1.43-.38-2.11-.38-.41-.01-.81-.01-1.21.06-.47.09-.92.26-1.32.57-.13.07-.23.15-.36.22-1.41.86-2.27,2.41-2.63,4.03-.86,1.24.51,2.24.68,3.23.45.67,1.11,1.53,1.95,2.15.51.39,1.08.68,1.69.83.38.09.79.12,1.21.06,1.16-.06,2.09-.39,2.88-.92.97-.65,1.73-1.56,2.46-2.52m-1.61-.81c-.2.41-.51.81-.84,1.18-.67.68-1.6,1.15-2.63,1.12l-.25-.06-1.21-.22-.52-.1c-.44-.47-.84-.93-1.16-1.43-.57-.84-.93-1.8-.89-2.98.23-.52.48-1.16.89-1.7.22-.29.49-.54.86-.73.25-.16.54-.28.83-.35.38-.09.8-.12,1.21-.07,1.03,0,2.14.35,2.88.83.01.01.03.01.04.01,1.05,1.08,1.37,3.05.8,4.49"/>
  <path class="cls-1" d="m36.8,72.81c-.63-.74-1.61-.74-2.56-.8h-.12c-.35.15-.73.33-1.09.55-.52.32-.97.73-1.21,1.25.22,1.12.29,2.37,1.21,2.98.15.1.33.19.54.26.25.06.44.12.68.12.87.06,1.75-.38,2.37-1.06.17-.32.36-.65.51-1.02.17-.41.28-.84.17-1.28-.04-.12-.12-.22-.17-.32-.13-.2-.29-.39-.33-.68m-2.05,2.86c-.31.13-.44,0-.51-.12-.12-.13-.19-.32-.31-.32-.26-.31-.12-.73-.12-1.03.12-.2.23-.32.42-.32.38-.12.87.19,1.06.55.19.55-.29.86-.55,1.24"/>
</svg>